<svg xmlns="http://www.w3.org/2000/svg" version="1.1" xmlns:xlink="http://www.w3.org/1999/xlink" xmlns:svgjs="http://svgjs.com/svgjs" width="512" height="512" x="0" y="0" viewBox="0 0 682.667 682.667" style="enable-background:new 0 0 512 512" xml:space="preserve" class=""><g><defs><clipPath id="a" clipPathUnits="userSpaceOnUse"><path d="M0 512h512V0H0Z" fill="#FFFFFF" data-original="#FFFFFF" opacity="1"></path></clipPath></defs><g clip-path="url(#a)" transform="matrix(1.33333 0 0 -1.33333 0 682.667)"><path d="m0 0 14.181-192.562c7.032-95.484 124.748-161.655 182.297-161.655 57.547 0 175.262 66.171 182.294 161.655l18.237 247.616c.193 2.625-.758 5.217-2.64 7.059-109.946 107.602-285.885 107.56-395.779-.126-1.88-1.841-2.829-4.431-2.636-7.055l1.336-18.145" style="stroke-width:15;stroke-linecap:round;stroke-linejoin:round;stroke-miterlimit:10;stroke-dasharray:none;stroke-opacity:1" transform="translate(59.519 361.717)" fill="none" stroke="#FFFFFF" stroke-width="15" stroke-linecap="round" stroke-linejoin="round" stroke-miterlimit="10" stroke-dasharray="none" stroke-opacity="" data-original="#FFFFFF" opacity="1" class=""></path><path d="M0 0c37.269-18.291 59.785-42.063 59.785-68.049v43c0 25.268-21.289 48.444-56.73 66.521" style="stroke-width:15;stroke-linecap:round;stroke-linejoin:round;stroke-miterlimit:10;stroke-dasharray:none;stroke-opacity:1" transform="translate(444.715 256.379)" fill="none" stroke="#FFFFFF" stroke-width="15" stroke-linecap="round" stroke-linejoin="round" stroke-miterlimit="10" stroke-dasharray="none" stroke-opacity="" data-original="#FFFFFF" opacity="1" class=""></path><path d="M0 0c-35.436-18.077-56.722-41.251-56.722-66.517v-43c0 25.984 22.513 49.754 59.777 68.045" style="stroke-width:15;stroke-linecap:round;stroke-linejoin:round;stroke-miterlimit:10;stroke-dasharray:none;stroke-opacity:1" transform="translate(64.222 297.847)" fill="none" stroke="#FFFFFF" stroke-width="15" stroke-linecap="round" stroke-linejoin="round" stroke-miterlimit="10" stroke-dasharray="none" stroke-opacity="" data-original="#FFFFFF" opacity="1" class=""></path><path d="M0 0c-28.569 0-52.125-21.461-55.424-49.142-.177-1.478 1.416-2.522 2.721-1.805C-37.063-42.361-19.102-37.478 0-37.478c19.102 0 37.063-4.883 52.702-13.469 1.306-.717 2.898.327 2.722 1.805C52.124-21.461 28.568 0 0 0Z" style="stroke-width:15;stroke-linecap:round;stroke-linejoin:round;stroke-miterlimit:10;stroke-dasharray:none;stroke-opacity:1" transform="translate(160.496 358.504)" fill="none" stroke="#FFFFFF" stroke-width="15" stroke-linecap="round" stroke-linejoin="round" stroke-miterlimit="10" stroke-dasharray="none" stroke-opacity="" data-original="#FFFFFF" opacity="1" class=""></path><path d="M0 0c28.569 0 52.125-21.462 55.424-49.143.177-1.478-1.416-2.522-2.721-1.805C37.063-42.362 19.102-37.479 0-37.479c-19.102 0-37.063-4.883-52.702-13.469-1.306-.717-2.898.327-2.722 1.805C-52.124-21.462-28.568 0 0 0Z" style="stroke-width:15;stroke-linecap:round;stroke-linejoin:round;stroke-miterlimit:10;stroke-dasharray:none;stroke-opacity:1" transform="translate(351.503 358.505)" fill="none" stroke="#FFFFFF" stroke-width="15" stroke-linecap="round" stroke-linejoin="round" stroke-miterlimit="10" stroke-dasharray="none" stroke-opacity="" data-original="#FFFFFF" opacity="1" class=""></path><path d="M0 0c-9.688 2.959-20.531 2.046-29.996-3.418-16.779-9.688-23.337-30.282-15.889-47.659" style="stroke-width:15;stroke-linecap:round;stroke-linejoin:round;stroke-miterlimit:10;stroke-dasharray:none;stroke-opacity:1" transform="translate(152.102 243.169)" fill="none" stroke="#FFFFFF" stroke-width="15" stroke-linecap="round" stroke-linejoin="round" stroke-miterlimit="10" stroke-dasharray="none" stroke-opacity="" data-original="#FFFFFF" opacity="1" class=""></path><path d="M0 0c10.688 4.744 23.418 4.488 34.319-1.806 16.78-9.688 23.337-30.282 15.889-47.659" style="stroke-width:15;stroke-linecap:round;stroke-linejoin:round;stroke-miterlimit:10;stroke-dasharray:none;stroke-opacity:1" transform="translate(355.573 241.557)" fill="none" stroke="#FFFFFF" stroke-width="15" stroke-linecap="round" stroke-linejoin="round" stroke-miterlimit="10" stroke-dasharray="none" stroke-opacity="" data-original="#FFFFFF" opacity="1" class=""></path><path d="M0 0a233.553 233.553 0 0 1 39.8 17.262c2.797 1.535 6.208-.701 5.83-3.869C38.562-45.9-11.896-91.873-73.092-91.873c-61.196 0-111.654 45.973-118.722 105.266-.378 3.168 3.033 5.404 5.83 3.869 33.501-18.394 71.974-28.856 112.892-28.856 12.897 0 25.552 1.04 37.885 3.039" style="stroke-width:15;stroke-linecap:round;stroke-linejoin:round;stroke-miterlimit:10;stroke-dasharray:none;stroke-opacity:1" transform="translate(329.092 194.58)" fill="none" stroke="#FFFFFF" stroke-width="15" stroke-linecap="round" stroke-linejoin="round" stroke-miterlimit="10" stroke-dasharray="none" stroke-opacity="" data-original="#FFFFFF" opacity="1" class=""></path><path d="M0 0a89.323 89.323 0 0 0 52.131 16.733c31.343 0 59.289-16.208 75.325-41.072" style="stroke-width:15;stroke-linecap:round;stroke-linejoin:round;stroke-miterlimit:10;stroke-dasharray:none;stroke-opacity:1" transform="translate(290.821 381.77)" fill="none" stroke="#FFFFFF" stroke-width="15" stroke-linecap="round" stroke-linejoin="round" stroke-miterlimit="10" stroke-dasharray="none" stroke-opacity="" data-original="#FFFFFF" opacity="1" class=""></path><path d="M0 0a89.323 89.323 0 0 1-52.131 16.733c-31.343 0-59.289-16.208-75.325-41.072" style="stroke-width:15;stroke-linecap:round;stroke-linejoin:round;stroke-miterlimit:10;stroke-dasharray:none;stroke-opacity:1" transform="translate(221.178 381.77)" fill="none" stroke="#FFFFFF" stroke-width="15" stroke-linecap="round" stroke-linejoin="round" stroke-miterlimit="10" stroke-dasharray="none" stroke-opacity="" data-original="#FFFFFF" opacity="1" class=""></path><path d="M0 0c6.893-3.213 14.253-6.245 22.036-9.077" style="stroke-width:15;stroke-linecap:round;stroke-linejoin:round;stroke-miterlimit:10;stroke-dasharray:none;stroke-opacity:1" transform="translate(71.509 118.263)" fill="none" stroke="#FFFFFF" stroke-width="15" stroke-linecap="round" stroke-linejoin="round" stroke-miterlimit="10" stroke-dasharray="none" stroke-opacity="" data-original="#FFFFFF" opacity="1" class=""></path><path d="M0 0c0-18.882 11.89-36.596 32.69-51.888" style="stroke-width:15;stroke-linecap:round;stroke-linejoin:round;stroke-miterlimit:10;stroke-dasharray:none;stroke-opacity:1" transform="translate(7.5 188.33)" fill="none" stroke="#FFFFFF" stroke-width="15" stroke-linecap="round" stroke-linejoin="round" stroke-miterlimit="10" stroke-dasharray="none" stroke-opacity="" data-original="#FFFFFF" opacity="1" class=""></path><path d="M0 0c-30.603 13.726-52.504 30.93-61.998 50.052" style="stroke-width:15;stroke-linecap:round;stroke-linejoin:round;stroke-miterlimit:10;stroke-dasharray:none;stroke-opacity:1" transform="translate(74.754 159.78)" fill="none" stroke="#FFFFFF" stroke-width="15" stroke-linecap="round" stroke-linejoin="round" stroke-miterlimit="10" stroke-dasharray="none" stroke-opacity="" data-original="#FFFFFF" opacity="1" class=""></path><path d="M0 0c52.706 19.179 86.057 47.524 86.057 79.149" style="stroke-width:15;stroke-linecap:round;stroke-linejoin:round;stroke-miterlimit:10;stroke-dasharray:none;stroke-opacity:1" transform="translate(418.443 109.18)" fill="none" stroke="#FFFFFF" stroke-width="15" stroke-linecap="round" stroke-linejoin="round" stroke-miterlimit="10" stroke-dasharray="none" stroke-opacity="" data-original="#FFFFFF" opacity="1" class=""></path><path d="M0 0c-9.494-19.124-31.4-36.33-62.009-50.057" style="stroke-width:15;stroke-linecap:round;stroke-linejoin:round;stroke-miterlimit:10;stroke-dasharray:none;stroke-opacity:1" transform="translate(499.244 209.831)" fill="none" stroke="#FFFFFF" stroke-width="15" stroke-linecap="round" stroke-linejoin="round" stroke-miterlimit="10" stroke-dasharray="none" stroke-opacity="" data-original="#FFFFFF" opacity="1" class=""></path></g></g></svg>