<svg xmlns="http://www.w3.org/2000/svg" version="1.1" xmlns:xlink="http://www.w3.org/1999/xlink" xmlns:svgjs="http://svgjs.com/svgjs" width="512" height="512" x="0" y="0" viewBox="0 0 100 100" style="enable-background:new 0 0 512 512" xml:space="preserve" class=""><g><path d="M77.889 46.382c-.119 0-.237.014-.353.042l-8.152 1.97a3.645 3.645 0 0 0-3.17-3.059c8.295-6.939 3.357-20.763-7.601-20.762-4.218 0-7.914 2.236-9.995 5.577-1.824-5.372-6.906-9.254-12.887-9.254-12.985.028-18.496 16.608-8.29 24.395-2.24-.269-4.397 1.315-4.375 3.66v19.756a3.664 3.664 0 0 0 3.66 3.66h11.13v5.239a1.5 1.5 0 0 0 1.5 1.5H53.15a1.5 1.5 0 0 0 1.5-1.5v-5.239h11.131c1.828 0 3.333-1.351 3.604-3.103l8.152 1.97c2.063.291 3.93-1.457 3.913-3.518V49.944a3.565 3.565 0 0 0-3.561-3.562zM51.65 76.105H40.856V72.37H51.65zm6.964-48.533c4.841 0 8.779 3.938 8.779 8.779-.461 11.638-17.1 11.635-17.559 0 0-4.841 3.939-8.779 8.78-8.779zm-33.5 6.94c0-5.854 4.763-10.617 10.617-10.617 14.085.583 14.081 20.654 0 21.234-5.855 0-10.617-4.762-10.617-10.617zm22.636 6.387a11.823 11.823 0 0 0 3.215 4.391h-6.943a13.7 13.7 0 0 0 3.728-4.391zm18.691 27.807a.66.66 0 0 1-.66.66H26.726a.66.66 0 0 1-.66-.66V48.95a.66.66 0 0 1 .66-.66h39.055a.66.66 0 0 1 .66.66zm12.009-.992a.56.56 0 0 1-.438.546l-8.562-2.068V51.464l8.562-2.068c.25.056.438.28.438.546zm-59.9-13.713h3v9.653h-3z" fill="#FFFFFF" data-original="#FFFFFF"></path></g></svg>