<svg xmlns="http://www.w3.org/2000/svg" version="1.1" xmlns:xlink="http://www.w3.org/1999/xlink" xmlns:svgjs="http://svgjs.com/svgjs" width="512" height="512" x="0" y="0" viewBox="0 0 511.991 511.991" style="enable-background:new 0 0 512 512" xml:space="preserve" class=""><g><path d="M341.759 502.448c-13.871 0-26.577-2.473-40.938-5.689-35.996-8.063-71.563-26.391-100.15-51.604-29.931-26.399-51.315-59.231-62.095-95.239l-56.299-.067h-.012a13.184 13.184 0 0 0-10.531 5.192 13.18 13.18 0 0 0-2.312 11.46l.035.131c.986 3.608 3.427 6.65 6.706 8.355L111.02 393.1l-5.384-20.093a7.5 7.5 0 0 1 5.303-9.186c4.003-1.077 8.114 1.302 9.186 5.303l12.16 45.382.019.071c2.266 8.54.482 17.453-4.899 24.466-5.396 7.031-13.574 11.064-22.437 11.064H7.5a7.5 7.5 0 0 1-5.785-12.274l29.048-35.204-29.051-35.251a7.501 7.501 0 0 1 5.788-12.27h23.277c4.142 0 7.5 3.357 7.5 7.5s-3.358 7.5-7.5 7.5h-7.378l22.873 27.756a7.5 7.5 0 0 1-.003 9.543l-22.857 27.701h81.557c4.162 0 8.003-1.894 10.537-5.196s3.369-7.501 2.292-11.521a13.31 13.31 0 0 0-6.704-8.348l-41.847-21.746c-7.024-3.651-12.234-10.156-14.295-17.848l-.027-.104-21.409-79.896c-2.295-8.565-.514-17.512 4.888-24.545 5.396-7.026 13.571-11.056 22.429-11.056h.025l52.18.063-30.8-114.942c-3.906-14.582 1.253-29.995 13.146-39.266 9.712-7.571 20.158-15.006 31.049-22.095a7.5 7.5 0 1 1 8.183 12.57c-10.536 6.858-20.633 14.043-30.01 21.354a22.443 22.443 0 0 0-7.879 23.554l24.633 91.93c69.202-33.84 111.647-64.298 126.208-90.579 3.711-6.697 4.962-16.346 3.764-20.816a7.5 7.5 0 0 1 5.303-9.186c4.002-1.077 8.114 1.302 9.186 5.303 2 7.467.674 18.607-3.049 27.619 5.03 7.472 15.931 25 20.785 43.115 7.21 26.911 4.778 48.876 2.823 66.525-1.154 10.419-2.151 19.418-.476 25.67.725 2.703 5.121 7.205 13.063 10.704 7.494 3.301 15.648 4.544 20.775 3.174 11.303-3.029 24.342-21.566 22.366-28.938-1.675-6.253-7.038-13.547-13.247-21.993-10.518-14.308-23.607-32.114-30.818-59.024-4.849-18.098-4.188-38.637-3.558-47.732-7.73-5.943-14.449-14.928-16.449-22.395a7.5 7.5 0 0 1 5.304-9.185c4-1.078 8.113 1.302 9.186 5.303 1.198 4.472 7.105 12.202 13.667 16.146 25.743 15.473 77.702 20.629 154.51 15.345l-24.629-91.916a22.44 22.44 0 0 0-18.599-16.458c-32.408-4.521-96.976-9.371-165.275 8.929-30.877 8.273-61.971 21.157-92.416 38.293a7.502 7.502 0 0 1-10.215-2.857 7.502 7.502 0 0 1 2.857-10.215c31.539-17.751 63.801-31.111 95.891-39.709 70.858-18.985 137.695-13.976 171.229-9.296 14.934 2.082 27.109 12.85 31.016 27.431l36.188 135.055a7.5 7.5 0 0 1-14.49 3.883l-7.604-28.379c-73.458 5.266-124.598 1.389-155.532-11.845-.243 9.346.117 23.438 3.408 35.72 6.48 24.184 18.642 40.729 28.415 54.022 7.106 9.667 13.244 18.016 15.65 26.995 2.138 7.98-.905 18.386-8.35 28.548-6.942 9.476-16.146 16.489-24.623 18.761-8.477 2.271-19.956.799-30.705-3.936-11.528-5.078-19.367-12.568-21.505-20.549-2.406-8.979-1.266-19.278.055-31.203 1.816-16.399 4.077-36.809-2.403-60.991-3.308-12.346-9.944-24.594-14.898-32.653-20.176 26.943-62.548 55.887-128.856 88.074l26.236 97.914c9.443 35.241 29.859 67.474 59.043 93.214 26.725 23.571 59.933 40.695 93.507 48.217 33.384 7.477 47.804 6.384 67.5 1.108 19.695-5.277 32.729-11.542 57.901-34.709 25.315-23.301 45.513-54.734 56.872-88.511 12.404-36.884 13.969-75.007 4.526-110.247l-11.025-41.146a7.501 7.501 0 0 1 5.304-9.186c4-1.077 8.113 1.302 9.186 5.303l11.025 41.146c10.209 38.102 8.55 79.221-4.798 118.911-12.15 36.13-33.789 69.785-60.931 94.767-18.814 17.316-34.431 30.189-64.177 38.16-12.625 3.385-23.491 4.731-33.722 4.731zM60.83 269.848a13.185 13.185 0 0 0-10.531 5.192 13.184 13.184 0 0 0-2.295 11.525l14.971 55.874c5.194-4.87 12.012-7.592 19.292-7.592h.025l52.18.062-17.416-64.994-56.216-.068-.01.001zm202.963 173.796c-15.784 0-30.266-10.547-34.541-26.501-5.811-21.688 8.251-49.035 35.825-69.673a7.5 7.5 0 1 1 8.989 12.008c-25.74 19.267-33.777 40.895-30.324 53.782 2.961 11.052 14.36 17.63 25.414 14.673 9.789-2.623 15.079-11.741 21.777-23.286 9.101-15.687 20.427-35.209 48.224-42.656 27.796-7.448 47.367 3.795 63.091 12.829 11.573 6.649 20.714 11.897 30.502 9.278 5.354-1.435 9.829-4.868 12.6-9.668s3.507-10.392 2.073-15.745c-2.952-11.019-15.652-21.405-33.145-27.108-15.956-5.202-43.289-9.174-82.887 1.436-11.724 3.142-22.701 7.107-32.627 11.787a7.499 7.499 0 0 1-9.982-3.586 7.5 7.5 0 0 1 3.585-9.982c10.733-5.06 22.557-9.335 35.142-12.707 43.153-11.563 73.531-7.039 91.418-1.208 22.6 7.367 38.669 21.381 42.984 37.486 2.471 9.224 1.203 18.858-3.572 27.128-4.774 8.27-12.484 14.186-21.708 16.656-15.772 4.227-29.033-3.393-41.857-10.76-14.711-8.453-29.924-17.194-51.736-11.348-21.813 5.845-30.618 21.021-39.132 35.695-7.422 12.793-15.097 26.021-30.869 30.247a35.638 35.638 0 0 1-9.244 1.223zm-66.32-167.906c-23.847 0-42.077-15.475-43.107-16.366a7.501 7.501 0 0 1 2.092-12.62c.194-.079 19.684-8.036 43.711-21.909 24.027-13.872 40.664-26.771 40.83-26.9a7.503 7.503 0 0 1 11.975 4.498c.351 1.825 8.193 44.923-27.804 65.705-9.602 5.542-19.023 7.592-27.697 7.592zm-22.534-20.794c10.173 5.12 26.28 9.708 42.731.211 16.316-9.42 20.424-25.682 21.122-37.069a442.274 442.274 0 0 1-31.122 19.748 442.266 442.266 0 0 1-32.731 17.11zm216.009-31.22c-41.565 0-56.323-41.243-56.931-42.999a7.502 7.502 0 0 1 8.121-9.883c.208.029 21.065 2.882 48.81 2.882 27.82 0 48.602-2.853 48.808-2.881a7.5 7.5 0 0 1 8.123 9.882c-.607 1.756-15.365 42.999-56.931 42.999zm-36.9-36.548c6.253 9.525 17.908 21.548 36.9 21.548 18.838 0 30.528-12.028 36.826-21.541a442.279 442.279 0 0 1-36.826 1.541c-14.951 0-27.835-.779-36.9-1.548z" fill="#FFFFFF" data-original="#FFFFFF" class=""></path></g></svg>