<svg xmlns="http://www.w3.org/2000/svg" version="1.1" xmlns:xlink="http://www.w3.org/1999/xlink" xmlns:svgjs="http://svgjs.com/svgjs" width="512" height="512" x="0" y="0" viewBox="0 0 512 512" style="enable-background:new 0 0 512 512" xml:space="preserve" class=""><g><path d="M352.11 231.555a3.926 3.926 0 0 0-.521-.494l-29.432-23.231a573.389 573.389 0 0 1-74.617-70.645 576.071 576.071 0 0 1-27.606-33.825 574.696 574.696 0 0 1-24.937-35.819l-12.07-18.819a45 45 0 0 0-60.058-14.872L21.479 91.27a4.242 4.242 0 0 0-1.911 2.516c-.485 1.589.7 3.663.8 3.89l11.837 25.646a486.327 486.327 0 0 0 97.987 140.527 84.38 84.38 0 0 1 23.15 43.255 48.617 48.617 0 0 1-1.549 24.867 17.083 17.083 0 1 0 32.414 0l-3.111-9.335a5.929 5.929 0 0 1 9.817-6.067A33.682 33.682 0 0 1 199 329.662a52.38 52.38 0 0 1 1.126 29.324l-1.338 5.354a17.748 17.748 0 0 0 25.14 20.166 17.9 17.9 0 0 0 9.288-20.318c-.868-3.4-1.819-7.156-2.674-10.548a25.486 25.486 0 0 1 9.424-26.617l14.481-10.861a24.596 24.596 0 0 0 1.772-1.475l38.28-27.5 6.942 7.873.028.03 1.217 1.381c.074.083.163.149.243.225a80.228 80.228 0 0 0 28.428 19.549 72.129 72.129 0 0 1 26.92 19.055l67.033 76.005 1.059 2.973a33.539 33.539 0 0 0 21.583 20.861 33.981 33.981 0 0 0 10.327 1.616 33.812 33.812 0 0 0 25.27-56.172zM30.785 95.193l12.676-7.179L57.624 110.1zM249.65 309.762l-14.48 10.861a33.493 33.493 0 0 0-12.382 34.977c.858 3.4 1.81 7.166 2.68 10.572a9.774 9.774 0 0 1-13.822 11.183 9.678 9.678 0 0 1-5.092-11.071l1.338-5.352a60.381 60.381 0 0 0-1.3-33.794 41.707 41.707 0 0 0-10.025-16.22 13.754 13.754 0 0 0-9.791-4.086 14.341 14.341 0 0 0-2.289.186 13.927 13.927 0 0 0-10.983 18.153l3.111 9.334a9.083 9.083 0 1 1-17.234 0 56.631 56.631 0 0 0 1.8-28.966 92.35 92.35 0 0 0-25.337-47.343 478.36 478.36 0 0 1-96.38-138.221l-6.7-14.526 48.564 26.981A29.651 29.651 0 0 1 95.65 151.1a37.391 37.391 0 0 0 24.564 26.523l10.086 3.362a42.366 42.366 0 0 1 25.986 24.5 50.354 50.354 0 0 0 30.885 29.121l13.394 4.465a31.855 31.855 0 0 1 18.535 16.077l2.641 5.282a39.8 39.8 0 0 0 23.162 20.089 16.8 16.8 0 0 1 10.578 10.581 16.7 16.7 0 0 1-5.831 18.662zm42.992-31.093-28.465 20.453a24.685 24.685 0 0 0-1.106-10.558 24.838 24.838 0 0 0-15.636-15.636 31.855 31.855 0 0 1-18.535-16.076l-2.64-5.282a39.8 39.8 0 0 0-23.16-20.089l-13.4-4.464a42.366 42.366 0 0 1-25.986-24.5 50.354 50.354 0 0 0-30.885-29.121l-10.086-3.363a29.423 29.423 0 0 1-19.331-20.874 37.686 37.686 0 0 0-18.2-23.725L72.384 118.3 50.433 84.066l76.379-43.255a37 37 0 0 1 49.38 12.228l12.071 18.819a580.99 580.99 0 0 0 25.285 36.321 584.324 584.324 0 0 0 27.992 34.3 581.384 581.384 0 0 0 75.66 71.63l25.669 20.262zm8.116 3.509 48-42.332 5.29 6-48 42.328zm183.06 123.8a25.794 25.794 0 0 1-49.913 5.62l-1.317-3.7a4 4 0 0 0-.769-1.3l-67.542-76.582a80.183 80.183 0 0 0-29.916-21.187 72.2 72.2 0 0 1-22.838-14.815l47.815-42.165 118.211 134.027a25.822 25.822 0 0 1 6.269 20.1z" fill="#FFFFFF" data-original="#FFFFFF"></path><path d="M352.32 273.39a12 12 0 1 0 7.187 20.975 12 12 0 0 0-7.187-20.975zm1.9 14.975a4 4 0 1 1-2.653-7c.085 0 .17 0 .256.009a4 4 0 0 1 2.4 6.991zM411.236 328.1a12 12 0 1 0 8.249 4.038 11.912 11.912 0 0 0-8.249-4.038zm1.9 14.975a4 4 0 0 1-5.646-.353 4 4 0 0 1 3-6.647c.085 0 .17 0 .256.009a4 4 0 0 1 2.4 6.991zM450.173 385.072a12 12 0 1 0 16.937 1.062 11.917 11.917 0 0 0-16.937-1.062zm10.584 12a4 4 0 1 1-2.653-7c.085 0 .17 0 .256.009a4 4 0 0 1 2.4 6.991zM136.55 53.662a20 20 0 0 0 11.976 34.96c.429.027.855.041 1.281.041a20 20 0 1 0-13.257-35zm25.206 15.751a12 12 0 1 1-2.978-8.689 11.927 11.927 0 0 1 2.978 8.689zM219.578 400.1a4 4 0 0 0-7.156 0l-13.266 26.533A30.028 30.028 0 0 0 196 440a20 20 0 1 0 40 0 30.041 30.041 0 0 0-3.155-13.367zm1.788 50.633a12.056 12.056 0 0 1-10.732 0A11.93 11.93 0 0 1 204 440a21.982 21.982 0 0 1 2.312-9.789L216 410.833l9.689 19.378A21.994 21.994 0 0 1 228 440a11.933 11.933 0 0 1-6.634 10.733z" fill="#FFFFFF" data-original="#FFFFFF"></path></g></svg>