<svg xmlns="http://www.w3.org/2000/svg" version="1.1" xmlns:xlink="http://www.w3.org/1999/xlink" xmlns:svgjs="http://svgjs.com/svgjs" width="512" height="512" x="0" y="0" viewBox="0 0 512 512" style="enable-background:new 0 0 512 512" xml:space="preserve" class=""><g><path d="m245.322 404.951 245.576-245.576c9.218-9.218 9.218-24.302-.001-33.52-9.218-9.218-24.301-9.218-33.52 0l8.38-8.38c9.218-9.218 9.217-24.303-.001-33.521-9.218-9.219-24.301-9.219-33.52-.001l8.38-8.38c9.218-9.218 9.218-24.302-.001-33.521-9.218-9.218-24.302-9.219-33.52 0l-8.38 8.38c9.218-9.218 9.218-24.303-.001-33.521-9.218-9.218-24.307-9.213-33.52 0L340.656 41.45M111.238 270.867l73.255-73.255m63.64-63.64 20.688-20.689 21.241-61.625c4.248-12.322 18.127-19.76 30.133-14.685L361.37 54.38c12.008 5.075 17.679 19.053 12.603 31.061-5.075 12.009-19.054 17.68-31.061 12.604l-8.884-3.755M432.236 83.953l-31.111 31.112M457.377 125.854l-22.731 22.731" style="fill-rule:evenodd;clip-rule:evenodd;stroke-width:20.0001;stroke-linecap:round;stroke-linejoin:round;stroke-miterlimit:22.9256;" fill-rule="evenodd" clip-rule="evenodd" fill="none" stroke="#FFFFFF" stroke-width="20.0001" stroke-linecap="round" stroke-linejoin="round" stroke-miterlimit="22.9256" data-original="#FFFFFF" class=""></path><path d="M468.166 182.106c-9.218 9.219-24.302 9.218-33.52-.001-9.218-9.218-9.218-24.302 0-33.52-9.218 9.218-24.303 9.217-33.521-.001s-9.219-24.301 0-33.52l-4.19 4.19c-9.218 9.218-24.302 9.217-33.521-.001a23.552 23.552 0 0 1-6.695-13.529M398.715 50.433l-21.683 21.682M14.189 502l175.525-175.526M81.206 367.942l121.619-121.62M252.848 330.382l41.313-41.313M97.722 485.507l80.307-80.306" style="fill-rule:evenodd;clip-rule:evenodd;stroke-width:20.0001;stroke-linecap:round;stroke-linejoin:round;stroke-miterlimit:22.9256;" fill-rule="evenodd" clip-rule="evenodd" fill="none" stroke="#FFFFFF" stroke-width="20.0001" stroke-linecap="round" stroke-linejoin="round" stroke-miterlimit="22.9256" data-original="#FFFFFF" class=""></path><path d="M216.308 165.791h.007" style="fill-rule:evenodd;clip-rule:evenodd;stroke-width:19.9998;stroke-linecap:round;stroke-linejoin:round;stroke-miterlimit:2.6131;" fill-rule="evenodd" clip-rule="evenodd" fill="none" stroke="#FFFFFF" stroke-width="19.9998" stroke-linecap="round" stroke-linejoin="round" stroke-miterlimit="2.6131" data-original="#FFFFFF" class=""></path></g></svg>