<svg width="124" height="28" viewBox="0 0 124 28" fill="none" xmlns="http://www.w3.org/2000/svg">
<path d="M22.4245 3.34473L13.245 12.5242C12.116 13.6532 12.9156 15.5835 14.5122 15.5835H21.6332V12.9502C21.6332 12.3443 22.1245 11.853 22.7305 11.853H25.5011L25.4838 4.60766C25.48 3.01313 23.552 2.21723 22.4245 3.34473Z" fill="#DBE2E9"/>
<path d="M32.5946 11.853L22.6966 11.853C22.0896 11.853 21.5979 12.3458 21.5994 12.9528L21.623 22.8289C21.6268 24.4234 23.5548 25.2193 24.6823 24.0918L33.8618 14.9123C34.9908 13.7834 34.1912 11.853 32.5946 11.853Z" fill="white"/>
<path opacity="0.5" fill-rule="evenodd" clip-rule="evenodd" d="M25.4983 11.853H22.6938C22.0868 11.853 21.5951 12.3459 21.5966 12.9529L21.6029 15.5835H21.6304H24.4011C25.0071 15.5835 25.4983 15.0923 25.4983 14.4863V11.853Z" fill="white"/>
<path d="M37.8771 4.68457L44.2856 11.6268C45.3347 12.7632 45.3475 14.5111 44.3152 15.6628L41.2773 19.0519C40.8781 18.4032 40.7762 18.032 40.731 17.3612C40.303 18.2605 40.3071 18.8106 40.6127 19.7932L37.944 22.7704C35.1665 21.2305 35.993 18.5983 35.993 18.5983L39.3774 14.5841C39.8373 14.0385 39.8094 13.2333 39.3128 12.721L36.0055 9.30862C36.0055 9.30862 35.058 6.82032 37.8771 4.68457Z" fill="white"/>
<path d="M9.27663 22.6971L2.86844 15.7546C1.81939 14.618 1.8067 12.8701 2.83912 11.7185L5.87718 8.32964C6.27628 8.97829 6.37819 9.34956 6.42341 10.0203C6.85143 9.12108 6.84739 8.5709 6.54178 7.5883L9.21062 4.61129C11.9881 6.15129 11.1615 8.78344 11.1615 8.78344L7.77683 12.7975C7.31687 13.343 7.34473 14.1482 7.84131 14.6606L11.1484 18.0732C11.1484 18.0732 12.0958 20.5615 9.27663 22.6971Z" fill="white"/>
<path fill-rule="evenodd" clip-rule="evenodd" d="M89.598 20.6263C89.354 20.6263 89.1561 20.4285 89.1561 20.1844V3.10158C89.1561 2.85751 89.354 2.65965 89.5981 2.65965H92.086C92.3301 2.65965 92.528 2.85751 92.528 3.10158V8.00466C94.3175 7.35861 95.1224 7.38639 96.2171 7.49672C97.3576 7.75017 97.9334 7.99708 98.6881 8.44009C99.5048 9.01738 99.9272 9.41162 100.483 10.1438C100.955 10.8791 101.154 11.655 101.154 12.6723L101.189 20.1823C101.19 20.4272 100.992 20.6263 100.747 20.6263H98.4624C98.2175 20.6263 98.0192 20.4313 98.0198 20.1863C98.024 18.5149 98.024 12.6294 97.8195 12.1528C97.5809 11.5967 97.4877 11.4423 97.142 11.1314C96.5312 10.582 95.9741 10.4154 95.1537 10.4154C94.5794 10.4154 94.0084 10.5783 93.4957 10.9377C92.9829 11.2971 92.7481 11.7188 92.528 12.1528C92.3394 12.5245 92.4739 18.4768 92.5163 20.1764C92.5225 20.4252 92.3226 20.6263 92.0738 20.6263H89.598ZM52.6502 19.712C53.3885 20.3519 54.4715 20.6718 55.899 20.6718C56.2599 20.6718 56.6947 20.639 57.2034 20.5734C57.5837 20.5259 57.9166 20.4654 58.2022 20.3921C58.3864 20.3447 58.5078 20.1744 58.5078 19.9841V18.1444C58.5078 17.84 58.2071 17.628 57.9115 17.7008C57.8035 17.7275 57.6987 17.7497 57.5972 17.7676C57.3347 17.8005 57.0393 17.8169 56.7112 17.8169C56.0548 17.8169 55.5954 17.6938 55.3329 17.4477C55.0704 17.1852 54.9391 16.7585 54.9391 16.1679V10.4579H58.1643C58.4084 10.4579 58.6063 10.26 58.6063 10.016V8.09407C58.6063 7.85 58.4084 7.65214 58.1643 7.65214H54.9391V4.05772C54.9391 3.81365 54.7412 3.61579 54.4972 3.61579H52.0092C51.7651 3.61579 51.5673 3.81365 51.5673 4.05772V7.65214L51.5673 10.4579V16.857C51.5673 18.104 51.9282 19.0557 52.6502 19.712ZM63.9053 19.8718C64.9554 20.4625 66.1203 20.7578 67.4002 20.7578C68.2567 20.7578 69.0399 20.6565 69.75 20.4537C69.9889 20.3855 70.1071 20.1239 70.017 19.8924L69.3065 18.0652C69.2185 17.8391 68.965 17.7285 68.73 17.7888C68.3693 17.8812 67.9835 17.9275 67.5724 17.9275C66.9982 17.9275 66.4567 17.8126 65.9481 17.5829C65.4558 17.3532 65.0374 17.0332 64.6929 16.623C64.3647 16.2128 64.1268 15.7534 63.9791 15.2448H73.4793V14.3587C73.4793 13.0461 73.2004 11.8729 72.6425 10.8392C72.101 9.80553 71.3545 8.98513 70.4028 8.37804C69.4512 7.77095 68.36 7.4674 67.1294 7.4674C65.8988 7.4674 64.7831 7.76274 63.7822 8.35343C62.7813 8.94411 61.9855 9.7399 61.3949 10.7408C60.8206 11.7417 60.5334 12.8656 60.5334 14.1126C60.5334 15.3596 60.837 16.4836 61.4441 17.4844C62.0512 18.4853 62.8716 19.2811 63.9053 19.8718ZM70.1567 12.8328H63.9299C64.0612 12.3077 64.2663 11.8565 64.5452 11.4791C64.8405 11.0854 65.2015 10.7818 65.6281 10.5685C66.0547 10.3552 66.5305 10.2485 67.0556 10.2485C67.5642 10.2485 68.0237 10.3634 68.4339 10.5931C68.8605 10.8064 69.2214 11.11 69.5168 11.5038C69.8285 11.8811 70.0418 12.3242 70.1567 12.8328ZM82.0647 20.9672C80.8013 20.9672 79.6609 20.68 78.6436 20.1058C77.6263 19.5151 76.8224 18.7193 76.2317 17.7184C75.641 16.7011 75.3456 15.569 75.3456 14.322C75.3456 13.0586 75.641 11.9264 76.2317 10.9255C76.8224 9.92464 77.6263 9.12886 78.6436 8.53817C79.6609 7.94748 80.8013 7.65214 82.0647 7.65214C83.082 7.65214 84.0501 7.84904 84.9689 8.24283C85.7756 8.5825 86.4847 9.05036 87.0961 9.6464C87.2616 9.80777 87.2582 10.071 87.0996 10.2391L85.6414 11.784C85.4646 11.9714 85.1668 11.9668 84.9796 11.7898C84.605 11.4357 84.2158 11.164 83.8121 10.9747C83.3035 10.7122 82.7456 10.581 82.1385 10.581C81.4822 10.581 80.8915 10.745 80.3665 11.0732C79.8578 11.4014 79.4476 11.8444 79.1359 12.4022C78.8405 12.9601 78.6929 13.6 78.6929 14.322C78.6929 15.0111 78.8405 15.6428 79.1359 16.2171C79.4476 16.775 79.8742 17.218 80.4157 17.5461C80.9572 17.8579 81.556 18.0138 82.2124 18.0138C82.7866 18.0138 83.3199 17.8989 83.8121 17.6692C84.2 17.4815 84.5735 17.2271 84.9327 16.9059C85.12 16.7384 85.4087 16.7378 85.5821 16.9196L86.9952 18.4017C87.1565 18.5709 87.1592 18.8376 86.9901 18.9991C86.3961 19.5664 85.7059 20.0255 84.9197 20.3765C84.0008 20.7703 83.0492 20.9672 82.0647 20.9672ZM103.766 20.14C104.16 20.5338 104.627 20.7307 105.169 20.7307C105.71 20.7307 106.178 20.5338 106.572 20.14C106.965 19.7462 107.162 19.2786 107.162 18.7371C107.162 18.1793 106.965 17.7034 106.572 17.3096C106.178 16.9158 105.71 16.719 105.169 16.719C104.627 16.719 104.16 16.9158 103.766 17.3096C103.372 17.7034 103.175 18.1793 103.175 18.7371C103.175 19.2786 103.372 19.7462 103.766 20.14ZM103.175 27.7043V24.3142C103.175 24.2049 103.264 24.1163 103.373 24.1163H105.377C107.413 24.1163 109.064 22.4658 109.064 20.4298V8.08947C109.064 7.8454 109.262 7.65214 109.506 7.65214H111.994C112.238 7.65214 112.436 7.85 112.436 8.09407V20.4298C112.436 24.4012 109.241 27.6336 105.27 27.6799L103.175 27.7043ZM114.356 20.2225C114.356 20.4456 114.537 20.6264 114.76 20.6264H117.432C117.595 20.6264 117.728 20.4939 117.728 20.3305V16.5105C117.728 13.5956 120.091 11.2326 123.006 11.2326C123.101 11.2326 123.177 11.1557 123.177 11.0609V8.08141C123.177 7.92796 123.053 7.80357 122.9 7.80357C118.181 7.80357 114.356 11.6286 114.356 16.3471V20.2225Z" fill="white"/>
</svg>
